<svg width="2523" height="797" viewBox="0 0 2523 797" fill="none" xmlns="http://www.w3.org/2000/svg">
<path d="M492.8 394.4C505.2 397.2 515 403.4 522.2 413C529.6 422.4 533.3 433.2 533.3 445.4C533.3 463.4 527.1 477.5 514.7 487.7C502.3 497.9 484.9 503 462.5 503H357.8V291.5H459.2C480.8 291.5 497.7 296.3 509.9 305.9C522.3 315.5 528.5 329 528.5 346.4C528.5 358.8 525.2 369.2 518.6 377.6C512.2 385.8 503.6 391.4 492.8 394.4ZM416.6 375.5H446.3C461.1 375.5 468.5 369.4 468.5 357.2C468.5 344.6 461.1 338.3 446.3 338.3H416.6V375.5ZM450.8 455.6C465.6 455.6 473 449.4 473 437C473 430.6 471 425.7 467 422.3C463.2 418.9 457.7 417.2 450.5 417.2H416.6V455.6H450.8ZM632.87 458H698.57V503H574.07V291.5H632.87V458ZM868.733 503L827.633 443.3L792.533 503H725.633L794.333 394.7L723.233 291.5H792.533L832.433 349.7L866.633 291.5H933.533L865.733 398L938.033 503H868.733ZM1104.43 458H1170.13V503H1045.63V291.5H1104.43V458ZM1380.2 334.7V503H1321.1V479C1316.1 486.6 1309.2 492.8 1300.4 497.6C1291.6 502.2 1281.5 504.5 1270.1 504.5C1250.5 504.5 1235 498.1 1223.6 485.3C1212.4 472.3 1206.8 454.7 1206.8 432.5V334.7H1265.3V425C1265.3 434.6 1267.8 442.2 1272.8 447.8C1278 453.2 1284.8 455.9 1293.2 455.9C1301.8 455.9 1308.6 453.2 1313.6 447.8C1318.6 442.2 1321.1 434.6 1321.1 425V334.7H1380.2ZM1533.66 503L1503.36 460.7L1479.36 503H1414.86L1470.96 415.7L1412.46 334.7H1478.46L1508.76 377L1533.06 334.7H1597.56L1540.26 420.5L1599.66 503H1533.66ZM1804.24 334.7V503H1745.14V479C1740.14 486.6 1733.24 492.8 1724.44 497.6C1715.64 502.2 1705.54 504.5 1694.14 504.5C1674.54 504.5 1659.04 498.1 1647.64 485.3C1636.44 472.3 1630.84 454.7 1630.84 432.5V334.7H1689.34V425C1689.34 434.6 1691.84 442.2 1696.84 447.8C1702.04 453.2 1708.84 455.9 1717.24 455.9C1725.84 455.9 1732.64 453.2 1737.64 447.8C1742.64 442.2 1745.14 434.6 1745.14 425V334.7H1804.24ZM1911.5 364.4C1918.1 354.8 1926.1 347.2 1935.5 341.6C1944.9 336 1955 333.2 1965.8 333.2V395.9H1949.3C1936.5 395.9 1927 398.4 1920.8 403.4C1914.6 408.4 1911.5 417.1 1911.5 429.5V503H1852.7V334.7H1911.5V364.4ZM2183.08 334.7L2076.28 583.1H2012.38L2052.58 495.8L1983.58 334.7H2048.98L2084.38 430.1L2118.58 334.7H2183.08Z" fill="white"/>
</svg>
