<svg width="2523" height="797" viewBox="0 0 2523 797" fill="none" xmlns="http://www.w3.org/2000/svg">
<path d="M564.8 361.1C561.4 355.5 556.7 351.2 550.7 348.2C544.9 345.2 538 343.7 530 343.7C515.2 343.7 503.5 348.5 494.9 358.1C486.5 367.7 482.3 380.6 482.3 396.8C482.3 415 486.8 428.9 495.8 438.5C505 447.9 518.3 452.6 535.7 452.6C556.3 452.6 571 443.3 579.8 424.7H520.7V382.4H630.5V439.4C625.9 450.6 619.1 461.1 610.1 470.9C601.3 480.7 590.1 488.8 576.5 495.2C562.9 501.4 547.4 504.5 530 504.5C508.8 504.5 490 500 473.6 491C457.4 481.8 444.8 469.1 435.8 452.9C427 436.5 422.6 417.8 422.6 396.8C422.6 376 427 357.5 435.8 341.3C444.8 324.9 457.4 312.2 473.6 303.2C489.8 294 508.5 289.4 529.7 289.4C556.3 289.4 578.3 295.8 595.7 308.6C613.1 321.4 623.9 338.9 628.1 361.1H564.8ZM730.651 364.4C737.251 354.8 745.251 347.2 754.651 341.6C764.051 336 774.151 333.2 784.951 333.2V395.9H768.451C755.651 395.9 746.151 398.4 739.951 403.4C733.751 408.4 730.651 417.1 730.651 429.5V503H671.851V334.7H730.651V364.4ZM981.83 416.9C981.83 421.5 981.53 426.1 980.93 430.7H869.63C870.23 439.9 872.73 446.8 877.13 451.4C881.73 455.8 887.53 458 894.53 458C904.33 458 911.33 453.6 915.53 444.8H978.23C975.63 456.4 970.53 466.8 962.93 476C955.53 485 946.13 492.1 934.73 497.3C923.33 502.5 910.73 505.1 896.93 505.1C880.33 505.1 865.53 501.6 852.53 494.6C839.73 487.6 829.63 477.6 822.23 464.6C815.03 451.6 811.43 436.3 811.43 418.7C811.43 401.1 815.03 385.9 822.23 373.1C829.43 360.1 839.43 350.1 852.23 343.1C865.23 336.1 880.13 332.6 896.93 332.6C913.53 332.6 928.23 336 941.03 342.8C953.83 349.6 963.83 359.4 971.03 372.2C978.23 384.8 981.83 399.7 981.83 416.9ZM921.83 402.2C921.83 395 919.43 389.4 914.63 385.4C909.83 381.2 903.83 379.1 896.63 379.1C889.43 379.1 883.53 381.1 878.93 385.1C874.33 388.9 871.33 394.6 869.93 402.2H921.83ZM1181.69 416.9C1181.69 421.5 1181.39 426.1 1180.79 430.7H1069.49C1070.09 439.9 1072.59 446.8 1076.99 451.4C1081.59 455.8 1087.39 458 1094.39 458C1104.19 458 1111.19 453.6 1115.39 444.8H1178.09C1175.49 456.4 1170.39 466.8 1162.79 476C1155.39 485 1145.99 492.1 1134.59 497.3C1123.19 502.5 1110.59 505.1 1096.79 505.1C1080.19 505.1 1065.39 501.6 1052.39 494.6C1039.59 487.6 1029.49 477.6 1022.09 464.6C1014.89 451.6 1011.29 436.3 1011.29 418.7C1011.29 401.1 1014.89 385.9 1022.09 373.1C1029.29 360.1 1039.29 350.1 1052.09 343.1C1065.09 336.1 1079.99 332.6 1096.79 332.6C1113.39 332.6 1128.09 336 1140.89 342.8C1153.69 349.6 1163.69 359.4 1170.89 372.2C1178.09 384.8 1181.69 399.7 1181.69 416.9ZM1121.69 402.2C1121.69 395 1119.29 389.4 1114.49 385.4C1109.69 381.2 1103.69 379.1 1096.49 379.1C1089.29 379.1 1083.39 381.1 1078.79 385.1C1074.19 388.9 1071.19 394.6 1069.79 402.2H1121.69ZM1330.86 333.2C1350.26 333.2 1365.66 339.7 1377.06 352.7C1388.46 365.5 1394.16 382.9 1394.16 404.9V503H1335.36V412.7C1335.36 403.1 1332.86 395.6 1327.86 390.2C1322.86 384.6 1316.16 381.8 1307.76 381.8C1298.96 381.8 1292.06 384.6 1287.06 390.2C1282.06 395.6 1279.56 403.1 1279.56 412.7V503H1220.76V334.7H1279.56V358.7C1284.76 351.1 1291.76 345 1300.56 340.4C1309.36 335.6 1319.46 333.2 1330.86 333.2ZM1500.22 458H1565.92V503H1441.42V291.5H1500.22V458ZM1633.48 319.1C1623.08 319.1 1614.68 316.3 1608.28 310.7C1602.08 304.9 1598.98 297.7 1598.98 289.1C1598.98 280.3 1602.08 273 1608.28 267.2C1614.68 261.4 1623.08 258.5 1633.48 258.5C1643.68 258.5 1651.88 261.4 1658.08 267.2C1664.48 273 1667.68 280.3 1667.68 289.1C1667.68 297.7 1664.48 304.9 1658.08 310.7C1651.88 316.3 1643.68 319.1 1633.48 319.1ZM1662.58 334.7V503H1603.78V334.7H1662.58ZM1821.17 333.2C1840.57 333.2 1855.97 339.7 1867.37 352.7C1878.77 365.5 1884.47 382.9 1884.47 404.9V503H1825.67V412.7C1825.67 403.1 1823.17 395.6 1818.17 390.2C1813.17 384.6 1806.47 381.8 1798.07 381.8C1789.27 381.8 1782.37 384.6 1777.37 390.2C1772.37 395.6 1769.87 403.1 1769.87 412.7V503H1711.07V334.7H1769.87V358.7C1775.07 351.1 1782.07 345 1790.87 340.4C1799.67 335.6 1809.77 333.2 1821.17 333.2ZM2037.03 503L1990.53 434V503H1931.73V281H1990.53V400.7L2037.03 334.7H2107.53L2041.23 419.3L2108.73 503H2037.03Z" fill="white"/>
</svg>
