<svg width="2523" height="797" viewBox="0 0 2523 797" fill="none" xmlns="http://www.w3.org/2000/svg">
<path d="M537.1 291.5V503H478.3V418.1H406.6V503H347.8V291.5H406.6V371H478.3V291.5H537.1ZM615.449 319.1C605.049 319.1 596.649 316.3 590.249 310.7C584.049 304.9 580.949 297.7 580.949 289.1C580.949 280.3 584.049 273 590.249 267.2C596.649 261.4 605.049 258.5 615.449 258.5C625.649 258.5 633.849 261.4 640.049 267.2C646.449 273 649.649 280.3 649.649 289.1C649.649 297.7 646.449 304.9 640.049 310.7C633.849 316.3 625.649 319.1 615.449 319.1ZM644.549 334.7V503H585.749V334.7H644.549ZM683.434 418.7C683.434 401.3 686.534 386.1 692.734 373.1C699.134 360.1 707.834 350.1 718.834 343.1C729.834 336.1 742.034 332.6 755.434 332.6C766.234 332.6 775.834 334.9 784.234 339.5C792.834 343.9 799.534 350 804.334 357.8V281H863.434V503H804.334V479.6C799.734 487.4 793.234 493.6 784.834 498.2C776.434 502.8 766.534 505.1 755.134 505.1C741.734 505.1 729.534 501.6 718.534 494.6C707.734 487.6 699.134 477.6 692.734 464.6C686.534 451.4 683.434 436.1 683.434 418.7ZM804.634 418.7C804.634 407.9 801.634 399.4 795.634 393.2C789.834 387 782.634 383.9 774.034 383.9C765.234 383.9 757.934 387 752.134 393.2C746.334 399.2 743.434 407.7 743.434 418.7C743.434 429.5 746.334 438.1 752.134 444.5C757.934 450.7 765.234 453.8 774.034 453.8C782.634 453.8 789.834 450.7 795.634 444.5C801.634 438.3 804.634 429.7 804.634 418.7ZM1072.74 416.9C1072.74 421.5 1072.44 426.1 1071.84 430.7H960.541C961.141 439.9 963.641 446.8 968.041 451.4C972.641 455.8 978.441 458 985.441 458C995.241 458 1002.24 453.6 1006.44 444.8H1069.14C1066.54 456.4 1061.44 466.8 1053.84 476C1046.44 485 1037.04 492.1 1025.64 497.3C1014.24 502.5 1001.64 505.1 987.841 505.1C971.241 505.1 956.441 501.6 943.441 494.6C930.641 487.6 920.541 477.6 913.141 464.6C905.941 451.6 902.341 436.3 902.341 418.7C902.341 401.1 905.941 385.9 913.141 373.1C920.341 360.1 930.341 350.1 943.141 343.1C956.141 336.1 971.041 332.6 987.841 332.6C1004.44 332.6 1019.14 336 1031.94 342.8C1044.74 349.6 1054.74 359.4 1061.94 372.2C1069.14 384.8 1072.74 399.7 1072.74 416.9ZM1012.74 402.2C1012.74 395 1010.34 389.4 1005.54 385.4C1000.74 381.2 994.741 379.1 987.541 379.1C980.341 379.1 974.441 381.1 969.841 385.1C965.241 388.9 962.241 394.6 960.841 402.2H1012.74ZM1431.13 291.5V503H1372.33V386.3L1332.43 503H1283.23L1243.03 385.4V503H1184.23V291.5H1255.33L1308.43 428.9L1360.33 291.5H1431.13ZM1640.4 416.9C1640.4 421.5 1640.1 426.1 1639.5 430.7H1528.2C1528.8 439.9 1531.3 446.8 1535.7 451.4C1540.3 455.8 1546.1 458 1553.1 458C1562.9 458 1569.9 453.6 1574.1 444.8H1636.8C1634.2 456.4 1629.1 466.8 1621.5 476C1614.1 485 1604.7 492.1 1593.3 497.3C1581.9 502.5 1569.3 505.1 1555.5 505.1C1538.9 505.1 1524.1 501.6 1511.1 494.6C1498.3 487.6 1488.2 477.6 1480.8 464.6C1473.6 451.6 1470 436.3 1470 418.7C1470 401.1 1473.6 385.9 1480.8 373.1C1488 360.1 1498 350.1 1510.8 343.1C1523.8 336.1 1538.7 332.6 1555.5 332.6C1572.1 332.6 1586.8 336 1599.6 342.8C1612.4 349.6 1622.4 359.4 1629.6 372.2C1636.8 384.8 1640.4 399.7 1640.4 416.9ZM1580.4 402.2C1580.4 395 1578 389.4 1573.2 385.4C1568.4 381.2 1562.4 379.1 1555.2 379.1C1548 379.1 1542.1 381.1 1537.5 385.1C1532.9 388.9 1529.9 394.6 1528.5 402.2H1580.4ZM1669.86 418.7C1669.86 401.3 1672.96 386.1 1679.16 373.1C1685.56 360.1 1694.26 350.1 1705.26 343.1C1716.26 336.1 1728.46 332.6 1741.86 332.6C1752.66 332.6 1762.26 334.9 1770.66 339.5C1779.26 343.9 1785.96 350 1790.76 357.8V281H1849.86V503H1790.76V479.6C1786.16 487.4 1779.66 493.6 1771.26 498.2C1762.86 502.8 1752.96 505.1 1741.56 505.1C1728.16 505.1 1715.96 501.6 1704.96 494.6C1694.16 487.6 1685.56 477.6 1679.16 464.6C1672.96 451.4 1669.86 436.1 1669.86 418.7ZM1791.06 418.7C1791.06 407.9 1788.06 399.4 1782.06 393.2C1776.26 387 1769.06 383.9 1760.46 383.9C1751.66 383.9 1744.36 387 1738.56 393.2C1732.76 399.2 1729.86 407.7 1729.86 418.7C1729.86 429.5 1732.76 438.1 1738.56 444.5C1744.36 450.7 1751.66 453.8 1760.46 453.8C1769.06 453.8 1776.26 450.7 1782.06 444.5C1788.06 438.3 1791.06 429.7 1791.06 418.7ZM1928.07 319.1C1917.67 319.1 1909.27 316.3 1902.87 310.7C1896.67 304.9 1893.57 297.7 1893.57 289.1C1893.57 280.3 1896.67 273 1902.87 267.2C1909.27 261.4 1917.67 258.5 1928.07 258.5C1938.27 258.5 1946.47 261.4 1952.67 267.2C1959.07 273 1962.27 280.3 1962.27 289.1C1962.27 297.7 1959.07 304.9 1952.67 310.7C1946.47 316.3 1938.27 319.1 1928.07 319.1ZM1957.17 334.7V503H1898.37V334.7H1957.17ZM1996.05 418.7C1996.05 401.3 1999.15 386.1 2005.35 373.1C2011.75 360.1 2020.35 350.1 2031.15 343.1C2042.15 336.1 2054.35 332.6 2067.75 332.6C2079.35 332.6 2089.35 334.9 2097.75 339.5C2106.15 344.1 2112.65 350.3 2117.25 358.1V334.7H2176.05V503H2117.25V479.6C2112.65 487.4 2106.05 493.6 2097.45 498.2C2089.05 502.8 2079.15 505.1 2067.75 505.1C2054.35 505.1 2042.15 501.6 2031.15 494.6C2020.35 487.6 2011.75 477.6 2005.35 464.6C1999.15 451.4 1996.05 436.1 1996.05 418.7ZM2117.25 418.7C2117.25 407.9 2114.25 399.4 2108.25 393.2C2102.45 387 2095.25 383.9 2086.65 383.9C2077.85 383.9 2070.55 387 2064.75 393.2C2058.95 399.2 2056.05 407.7 2056.05 418.7C2056.05 429.5 2058.95 438.1 2064.75 444.5C2070.55 450.7 2077.85 453.8 2086.65 453.8C2095.25 453.8 2102.45 450.7 2108.25 444.5C2114.25 438.3 2117.25 429.7 2117.25 418.7Z" fill="white"/>
</svg>
