<svg width="2523" height="797" viewBox="0 0 2523 797" fill="none" xmlns="http://www.w3.org/2000/svg">
<path d="M551.6 458H617.3V503H492.8V291.5H551.6V458ZM815.963 416.9C815.963 421.5 815.663 426.1 815.063 430.7H703.763C704.363 439.9 706.863 446.8 711.263 451.4C715.863 455.8 721.663 458 728.663 458C738.463 458 745.463 453.6 749.663 444.8H812.363C809.763 456.4 804.663 466.8 797.063 476C789.663 485 780.263 492.1 768.863 497.3C757.463 502.5 744.863 505.1 731.063 505.1C714.463 505.1 699.663 501.6 686.663 494.6C673.863 487.6 663.763 477.6 656.363 464.6C649.163 451.6 645.563 436.3 645.563 418.7C645.563 401.1 649.163 385.9 656.363 373.1C663.563 360.1 673.563 350.1 686.363 343.1C699.363 336.1 714.263 332.6 731.063 332.6C747.663 332.6 762.363 336 775.163 342.8C787.963 349.6 797.963 359.4 805.163 372.2C812.363 384.8 815.963 399.7 815.963 416.9ZM755.963 402.2C755.963 395 753.563 389.4 748.763 385.4C743.963 381.2 737.963 379.1 730.763 379.1C723.563 379.1 717.663 381.1 713.063 385.1C708.463 388.9 705.463 394.6 704.063 402.2H755.963ZM845.427 418.7C845.427 401.3 848.527 386.1 854.727 373.1C861.127 360.1 869.727 350.1 880.527 343.1C891.527 336.1 903.727 332.6 917.127 332.6C928.727 332.6 938.727 334.9 947.127 339.5C955.527 344.1 962.027 350.3 966.627 358.1V334.7H1025.43V503H966.627V479.6C962.027 487.4 955.427 493.6 946.827 498.2C938.427 502.8 928.527 505.1 917.127 505.1C903.727 505.1 891.527 501.6 880.527 494.6C869.727 487.6 861.127 477.6 854.727 464.6C848.527 451.4 845.427 436.1 845.427 418.7ZM966.627 418.7C966.627 407.9 963.627 399.4 957.627 393.2C951.827 387 944.627 383.9 936.027 383.9C927.227 383.9 919.927 387 914.127 393.2C908.327 399.2 905.427 407.7 905.427 418.7C905.427 429.5 908.327 438.1 914.127 444.5C919.927 450.7 927.227 453.8 936.027 453.8C944.627 453.8 951.827 450.7 957.627 444.5C963.627 438.3 966.627 429.7 966.627 418.7ZM1132.73 364.4C1139.33 354.8 1147.33 347.2 1156.73 341.6C1166.13 336 1176.23 333.2 1187.03 333.2V395.9H1170.53C1157.73 395.9 1148.23 398.4 1142.03 403.4C1135.83 408.4 1132.73 417.1 1132.73 429.5V503H1073.93V334.7H1132.73V364.4ZM1333.21 333.2C1352.61 333.2 1368.01 339.7 1379.41 352.7C1390.81 365.5 1396.51 382.9 1396.51 404.9V503H1337.71V412.7C1337.71 403.1 1335.21 395.6 1330.21 390.2C1325.21 384.6 1318.51 381.8 1310.11 381.8C1301.31 381.8 1294.41 384.6 1289.41 390.2C1284.41 395.6 1281.91 403.1 1281.91 412.7V503H1223.11V334.7H1281.91V358.7C1287.11 351.1 1294.11 345 1302.91 340.4C1311.71 335.6 1321.81 333.2 1333.21 333.2ZM1522.08 505.1C1505.28 505.1 1490.18 501.6 1476.78 494.6C1463.58 487.6 1453.18 477.6 1445.58 464.6C1437.98 451.6 1434.18 436.3 1434.18 418.7C1434.18 401.3 1437.98 386.1 1445.58 373.1C1453.38 360.1 1463.88 350.1 1477.08 343.1C1490.48 336.1 1505.58 332.6 1522.38 332.6C1539.18 332.6 1554.18 336.1 1567.38 343.1C1580.78 350.1 1591.28 360.1 1598.88 373.1C1606.68 386.1 1610.58 401.3 1610.58 418.7C1610.58 436.1 1606.68 451.4 1598.88 464.6C1591.28 477.6 1580.78 487.6 1567.38 494.6C1553.98 501.6 1538.88 505.1 1522.08 505.1ZM1522.08 454.1C1530.28 454.1 1537.08 451.1 1542.48 445.1C1548.08 438.9 1550.88 430.1 1550.88 418.7C1550.88 407.3 1548.08 398.6 1542.48 392.6C1537.08 386.6 1530.38 383.6 1522.38 383.6C1514.38 383.6 1507.68 386.6 1502.28 392.6C1496.88 398.6 1494.18 407.3 1494.18 418.7C1494.18 430.3 1496.78 439.1 1501.98 445.1C1507.18 451.1 1513.88 454.1 1522.08 454.1ZM1730.2 447.5L1761.7 334.7H1824.4L1766.5 503H1693.3L1635.4 334.7H1698.1L1730.2 447.5ZM1849.72 418.7C1849.72 401.3 1852.82 386.1 1859.02 373.1C1865.42 360.1 1874.02 350.1 1884.82 343.1C1895.82 336.1 1908.02 332.6 1921.42 332.6C1933.02 332.6 1943.02 334.9 1951.42 339.5C1959.82 344.1 1966.32 350.3 1970.92 358.1V334.7H2029.72V503H1970.92V479.6C1966.32 487.4 1959.72 493.6 1951.12 498.2C1942.72 502.8 1932.82 505.1 1921.42 505.1C1908.02 505.1 1895.82 501.6 1884.82 494.6C1874.02 487.6 1865.42 477.6 1859.02 464.6C1852.82 451.4 1849.72 436.1 1849.72 418.7ZM1970.92 418.7C1970.92 407.9 1967.92 399.4 1961.92 393.2C1956.12 387 1948.92 383.9 1940.32 383.9C1931.52 383.9 1924.22 387 1918.42 393.2C1912.62 399.2 1909.72 407.7 1909.72 418.7C1909.72 429.5 1912.62 438.1 1918.42 444.5C1924.22 450.7 1931.52 453.8 1940.32 453.8C1948.92 453.8 1956.12 450.7 1961.92 444.5C1967.92 438.3 1970.92 429.7 1970.92 418.7Z" fill="white"/>
</svg>
